# Blender 3.4.1
# www.blender.org
mtllib Fish.mtl
o Fish
v -0.143232 -0.121952 0.047996
v -0.146242 0.052023 0.080388
v 0.284999 -0.080574 0.018043
v 0.283591 0.059820 0.018226
v 0.217741 0.034163 0.026176
v 0.119693 0.065254 0.036488
v -0.262918 -0.014501 0.046522
v -0.159832 0.115755 0.055691
v -0.077035 -0.138951 0.033098
v -0.089546 0.146437 0.041303
v -0.244615 -0.004299 0.071276
v 0.302814 -0.019361 0.029074
v -0.136056 -0.017792 0.083853
v -0.064341 0.065805 0.072267
v 0.296328 0.022593 0.031333
v -0.068251 -0.012549 0.077648
v 0.483363 0.244441 0.093253
v 0.425810 0.053156 0.064165
v 0.385832 -0.047079 0.043892
v 0.452374 -0.207954 0.080384
v -0.238871 -0.112346 0.054135
v -0.244181 -0.039962 0.072082
v -0.249037 0.031494 0.056254
v -0.255035 -0.089799 0.043752
v -0.264370 -0.039211 0.047033
v -0.261480 0.010311 0.046017
v 0.119378 -0.125222 0.008022
v 0.117793 0.129050 0.012782
v 0.124701 -0.014821 0.039465
v 0.149770 0.281167 -0.037295
v -0.006861 0.220300 -0.030029
v 0.143421 -0.251490 -0.033975
v 0.043236 -0.236413 -0.033620
v 0.207154 -0.097734 0.003775
v 0.222189 0.064444 0.009777
v 0.218911 -0.019594 0.031749
v 0.437908 0.138308 0.069527
v 0.295815 -0.059778 0.030590
v -0.066770 -0.088473 0.066375
v -0.238874 -0.076069 0.069136
v 0.119129 -0.088698 0.028251
v 0.428160 -0.116021 0.067110
v 0.214068 -0.069682 0.022858
v -0.130495 -0.072616 0.073973
v -0.170460 -0.121952 -0.029494
v 0.310626 -0.080574 -0.030121
v 0.309991 0.059820 -0.031391
v 0.243677 0.034163 -0.075353
v 0.134927 0.065254 -0.120283
v -0.109493 -0.138951 -0.059278
v -0.124387 0.146437 -0.057854
v 0.329728 -0.019361 -0.021509
v 0.327978 0.022593 -0.028150
v -0.130507 -0.012549 -0.099530
v -0.248918 -0.112346 0.025540
v 0.127487 -0.125222 -0.087387
v 0.126727 0.129050 -0.092346
v 0.140366 -0.014821 -0.122372
v 0.223643 -0.097734 -0.060774
v 0.239714 0.064444 -0.058829
v 0.247375 -0.019594 -0.079681
v 0.327075 -0.059778 -0.028161
v -0.122300 -0.088473 -0.091662
v -0.258304 -0.076069 0.013839
v -0.259752 -0.064454 0.045410
v 0.132981 -0.088698 -0.112259
v 0.238863 -0.069682 -0.074203
v -0.176772 -0.072616 -0.057729
v -0.118878 0.056180 0.078575
v -0.137007 0.066450 0.073680
v -0.175816 0.067829 0.066879
v -0.164147 0.084034 0.065055
v -0.092848 0.036887 0.077467
v -0.109080 0.016959 0.080546
v -0.133076 0.038966 0.081364
v -0.122876 0.085783 0.068741
v -0.102774 0.077179 0.071869
v -0.165512 0.020984 0.080567
v -0.152823 0.009698 0.082002
v -0.192875 0.052023 -0.052330
v -0.188030 0.115755 -0.024560
v -0.263927 -0.004299 0.016314
v -0.187096 -0.017792 -0.061405
v -0.123896 0.065805 -0.097225
v -0.264093 -0.039962 0.015413
v -0.257981 0.031494 0.030801
v -0.170392 0.056180 -0.068032
v -0.181474 0.066450 -0.052873
v -0.207499 0.067829 -0.023291
v -0.197254 0.084034 -0.029167
v -0.149390 0.036887 -0.083450
v -0.163981 0.016959 -0.075699
v -0.183214 0.038966 -0.061327
v -0.167360 0.085783 -0.057859
v -0.153633 0.077179 -0.072874
v -0.208022 0.020984 -0.040416
v -0.199020 0.009698 -0.049473
v 0.033450 0.065530 0.048846
v 0.022229 0.137744 0.014227
v 0.033930 -0.013685 0.052869
v 0.026017 -0.132087 0.007900
v 0.052583 0.250734 -0.045815
v 0.065248 -0.243951 -0.045140
v 0.032240 -0.088585 0.041772
v 0.009969 0.137744 -0.088363
v 0.012053 -0.013685 -0.128677
v 0.014617 -0.132087 -0.086408
v 0.012498 0.065530 -0.126292
v 0.012738 -0.088585 -0.119453
vn -0.2722 0.7389 0.6164
vn -0.1569 0.0640 0.9855
vn 0.8759 -0.0743 0.4767
vn 0.0825 0.9960 0.0337
vn -0.4841 -0.0809 0.8713
vn -0.4976 0.1168 0.8595
vn -0.9425 0.0642 0.3279
vn -0.9418 -0.0724 0.3284
vn 0.0028 -0.0605 0.9982
vn 0.0241 0.1063 0.9940
vn -0.0721 0.0258 0.9971
vn 0.1751 0.2373 0.9555
vn 0.0439 0.3334 0.9418
vn 0.0401 0.2052 0.9779
vn 0.1067 0.4421 0.8906
vn 0.4023 0.5038 0.7644
vn 0.6013 0.7983 0.0339
vn -0.1219 0.9857 -0.1167
vn 0.1762 0.2384 0.9551
vn -0.1430 0.7301 0.6682
vn 0.1739 -0.3762 0.9101
vn 0.1915 -0.0492 0.9803
vn 0.1654 -0.0469 0.9851
vn 0.1446 -0.3722 0.9168
vn 0.0352 -0.0366 0.9987
vn 0.0740 0.2190 0.9729
vn 0.1525 0.2415 0.9583
vn 0.1194 -0.0497 0.9916
vn 0.0172 -0.3022 0.9531
vn 0.0700 0.0206 0.9973
vn -0.1543 -0.0712 0.9855
vn -0.1830 -0.7944 0.5792
vn 0.2796 -0.9477 0.1537
vn 0.8712 0.0453 0.4888
vn -0.4093 -0.2718 0.8710
vn 0.8023 -0.3937 0.4487
vn -0.6496 0.4541 0.6099
vn -0.9316 0.1656 0.3236
vn -0.9249 -0.1992 0.3237
vn 0.0463 -0.3390 0.9396
vn 0.1273 -0.3729 0.9191
vn 0.2449 0.7701 0.5890
vn 0.1429 -0.4649 0.8738
vn -0.1056 -0.7859 0.6093
vn -0.0463 -0.9755 0.2152
vn -0.0219 -0.9835 -0.1795
vn 0.0929 0.0496 0.9944
vn 0.1968 -0.8535 0.4826
vn 0.3304 -0.6019 0.7270
vn -0.4016 -0.7290 0.5543
vn -0.9063 -0.2777 0.3185
vn -0.0902 -0.8182 0.5678
vn 0.6821 0.6165 0.3933
vn 0.2620 0.6367 -0.7252
vn 0.6000 0.0310 -0.7994
vn -0.9228 -0.0768 -0.3777
vn -0.9248 0.1172 -0.3620
vn -0.1198 0.4483 -0.8858
vn 0.4615 0.5279 -0.7130
vn -0.0773 0.2393 -0.9679
vn -0.3568 0.2364 -0.9038
vn -0.4610 0.7402 -0.4894
vn -0.0681 -0.3615 -0.9299
vn -0.3674 -0.3621 -0.8567
vn -0.3901 -0.0430 -0.9198
vn -0.0764 -0.0465 -0.9960
vn 0.4569 -0.0338 -0.8889
vn 0.2227 -0.0471 -0.9737
vn 0.2404 0.2611 -0.9349
vn 0.4576 0.1999 -0.8664
vn -0.5847 -0.2984 -0.7544
vn -0.6243 -0.0559 -0.7792
vn 0.7636 0.0143 -0.6456
vn 0.6216 -0.0384 -0.7824
vn 0.2899 -0.7030 -0.6494
vn -0.8643 -0.2678 -0.4259
vn -0.8877 0.4551 -0.0697
vn 0.4235 -0.3053 -0.8529
vn 0.2096 -0.3775 -0.9020
vn 0.4496 0.7478 -0.4885
vn -0.0894 -0.5183 -0.8505
vn -0.3877 -0.7984 -0.4608
vn 0.3534 -0.8397 -0.4122
vn 0.3922 -0.6256 -0.6743
vn -0.6601 -0.7290 -0.1813
vn -0.4255 -0.8182 -0.3865
vn -0.3580 0.6890 0.6302
vn -0.6744 0.6886 -0.2666
vn -0.2034 0.9761 0.0770
vn 0.6152 -0.7853 0.0700
vn -0.0276 0.3517 0.9357
vn -0.2500 0.3238 0.9125
vn -0.0999 0.2404 0.9655
vn -0.0692 0.3122 0.9475
vn -0.1935 0.3172 0.9284
vn -0.1082 0.0522 0.9928
vn 0.1081 0.0695 0.9917
vn -0.6799 0.0258 -0.7328
vn -0.6030 0.1063 -0.7907
vn -0.5804 0.2052 -0.7880
vn -0.5564 0.3305 -0.7624
vn -0.5531 0.0531 -0.8314
vn -0.6087 0.3492 -0.7124
vn -0.7658 0.3238 -0.5556
vn -0.6819 0.2404 -0.6908
vn -0.6466 0.3122 -0.6960
vn -0.7317 0.3172 -0.6034
vn -0.7054 0.0522 -0.7068
vn -0.5391 0.0731 -0.8390
vt 0.418110 0.063621
vt 0.300718 0.933702
vt 0.418110 0.063621
vt 0.169516 0.042905
vt 0.307624 0.056716
vt 0.307624 0.056716
vt 0.169516 0.042905
vt 0.307624 0.056716
vt 0.307624 0.056716
vt 0.300718 0.042905
vt 0.418110 0.063621
vt 0.418110 0.063621
vt 0.300718 0.042905
vt 0.176421 0.056716
vt 0.418110 0.063621
vt 0.300718 0.042905
vt 0.418110 0.063621
vt 0.176421 0.056716
vt 0.418110 0.063621
vt 0.307624 0.056716
vt 0.169516 0.042905
vt 0.418110 0.063621
vt 0.300718 0.042905
vt 0.418110 0.063621
vt 0.169516 0.042905
vt 0.307624 0.056716
vt 0.300718 0.042905
vt 0.418110 0.063621
vt 0.169516 0.042905
vt 0.169516 0.042905
vt 0.169516 0.042905
vt 0.169516 0.042905
vt 0.418110 0.063621
vt 0.418110 0.063621
vt 0.418110 0.063621
vt 0.418110 0.063621
vt 0.418110 0.063621
vt 0.418110 0.063621
vt 0.307624 0.056716
vt 0.300718 0.042905
vt 0.176421 0.056716
vt 0.176421 0.056716
vt 0.307624 0.056716
vt 0.300718 0.042905
vt 0.307624 0.056716
vt 0.300718 0.042905
vt 0.176421 0.056716
vt 0.176421 0.056716
vt 0.176421 0.056716
vt 0.176421 0.056716
vt 0.307624 0.056716
vt 0.307624 0.056716
vt 0.307624 0.056716
vt 0.169516 0.042905
vt 0.307624 0.056716
vt 0.169516 0.042905
vt 0.418110 0.063621
vt 0.300718 0.042905
vt 0.418110 0.063621
vt 0.307624 0.056716
vt 0.300718 0.042905
vt 0.169516 0.042905
vt 0.307624 0.056716
vt 0.418110 0.063621
vt 0.418110 0.063621
vt 0.169516 0.042905
vt 0.307624 0.056716
vt 0.307624 0.056716
vt 0.169516 0.042905
vt 0.307624 0.056716
vt 0.307624 0.056716
vt 0.300718 0.042905
vt 0.300718 0.042905
vt 0.176421 0.056716
vt 0.418110 0.063621
vt 0.300718 0.042905
vt 0.418110 0.063621
vt 0.176421 0.056716
vt 0.307624 0.056716
vt 0.169516 0.042905
vt 0.169516 0.042905
vt 0.307624 0.056716
vt 0.300718 0.042905
vt 0.418110 0.063621
vt 0.418110 0.063621
vt 0.307624 0.056716
vt 0.300718 0.042905
vt 0.176421 0.056716
vt 0.176421 0.056716
vt 0.307624 0.056716
vt 0.300718 0.042905
vt 0.307624 0.056716
vt 0.300718 0.042905
vt 0.307624 0.056716
vt 0.307624 0.056716
vt 0.307624 0.056716
vt 0.307624 0.056716
vt 0.169516 0.042905
vt 0.418110 0.063621
vt 0.300718 0.042905
vt 0.418110 0.063621
vt 0.418110 0.063621
vt 0.307624 0.056716
vt 0.300718 0.042905
vt 0.307624 0.056716
vt 0.418110 0.063621
vt 0.300718 0.933702
vt 0.418110 0.063621
vt 0.300718 0.933702
vt 0.418110 0.063621
vt 0.300718 0.933702
vt 0.418110 0.063621
vt 0.300718 0.933702
vt 0.418110 0.063621
vt 0.300718 0.933702
vt 0.418110 0.063621
vt 0.300718 0.933702
vt 0.418110 0.063621
vt 0.300718 0.933702
vt 0.418110 0.063621
vt 0.300718 0.933702
vt 0.418110 0.063621
vt 0.300718 0.933702
vt 0.418110 0.063621
vt 0.300718 0.933702
vt 0.418110 0.063621
vt 0.300718 0.933702
vt 0.418110 0.063621
vt 0.300718 0.933702
vt 0.418110 0.063621
vt 0.418110 0.063621
vt 0.418110 0.063621
vt 0.418110 0.063621
vt 0.300718 0.042905
vt 0.418110 0.063621
vt 0.418110 0.063621
vt 0.418110 0.063621
vt 0.300718 0.933702
vt 0.418110 0.063621
vt 0.300718 0.933702
vt 0.418110 0.063621
vt 0.300718 0.933702
vt 0.418110 0.063621
vt 0.300718 0.933702
vt 0.418110 0.063621
vt 0.300718 0.933702
vt 0.418110 0.063621
vt 0.300718 0.933702
vt 0.418110 0.063621
vt 0.300718 0.933702
vt 0.418110 0.063621
vt 0.300718 0.933702
vt 0.418110 0.063621
vt 0.300718 0.933702
vt 0.418110 0.063621
vt 0.300718 0.933702
vt 0.418110 0.063621
vt 0.300718 0.933702
vt 0.418110 0.063621
vt 0.300718 0.042905
vt 0.300718 0.042905
vt 0.176421 0.056716
vt 0.300718 0.042905
vt 0.300718 0.042905
vt 0.176421 0.056716
vt 0.176421 0.056716
vt 0.176421 0.056716
vt 0.300718 0.042905
vt 0.300718 0.042905
vt 0.176421 0.056716
vt 0.300718 0.042905
vt 0.300718 0.042905
vt 0.176421 0.056716
vt 0.300718 0.042905
vt 0.300718 0.042905
s 1
usemtl Material
f 4/7/1 15/25/2 37/54/3 17/29/4
f 22/34/5 11/19/6 7/11/7 25/37/8
f 13/22/9 75/120/10 79/128/11
f 14/24/12 77/124/13 69/108/14
f 99/162/15 28/42/16 30/47/17 102/166/18
f 98/160/19 99/161/15 10/16/20 14/23/12
f 104/168/21 100/163/22 16/27/23 39/58/24
f 36/53/25 5/8/26 6/9/27 29/45/28
f 39/57/24 16/28/23 13/22/9 44/64/29
f 12/20/30 15/26/2 5/8/26 36/53/25
f 38/56/31 3/4/32 20/32/33 42/62/34
f 44/64/29 13/22/9 22/34/5 40/59/35
f 15/25/2 12/21/30 18/30/36 37/54/3
f 11/19/6 23/35/37 26/38/38 7/11/7
f 77/124/13 14/24/12 10/17/20
f 40/59/35 22/34/5 25/37/8 65/102/39
f 43/63/40 36/53/25 29/45/28 41/60/41
f 5/8/26 35/52/42 28/43/16 6/9/27
f 101/165/43 9/14/44 33/50/45 103/167/46
f 15/26/2 4/6/1 35/52/42 5/8/26
f 38/55/31 12/20/30 36/53/25 43/63/40
f 100/163/22 98/160/19 14/23/12 16/27/23
f 16/28/23 74/118/47 13/22/9
f 3/5/32 38/55/31 43/63/40 34/51/48
f 34/51/48 43/63/40 41/60/41 27/39/49
f 21/33/50 40/59/35 65/102/39 24/36/51
f 1/1/52 44/64/29 40/59/35 21/33/50
f 12/21/30 38/56/31 42/62/34 19/31/53
f 9/15/44 39/57/24 44/64/29 1/1/52
f 101/164/43 104/168/21 39/58/24 9/13/44
f 47/69/54 17/29/4 37/54/3 53/81/55
f 85/136/56 25/37/8 7/11/7 82/132/57
f 105/170/58 102/166/18 30/47/17 57/89/59
f 108/174/60 84/134/61 51/76/62 105/169/58
f 109/175/63 63/100/64 54/83/65 106/171/66
f 61/96/67 58/92/68 49/71/69 48/70/70
f 63/99/64 68/106/71 83/133/72 54/84/65
f 52/79/73 61/96/67 48/70/70 53/82/55
f 62/98/74 42/62/34 20/32/33 46/66/75
f 68/106/71 64/101/76 85/136/56 83/133/72
f 53/81/55 37/54/3 18/30/36 52/80/73
f 82/132/57 7/11/7 26/38/38 86/137/77
f 64/101/76 65/102/39 25/37/8 85/136/56
f 67/105/78 66/103/79 58/92/68 61/96/67
f 48/70/70 49/71/69 57/90/59 60/95/80
f 107/173/81 103/167/46 33/50/45 50/74/82
f 53/82/55 48/70/70 60/95/80 47/68/54
f 62/97/74 67/105/78 61/96/67 52/79/73
f 106/171/66 54/83/65 84/134/61 108/174/60
f 46/67/75 59/94/83 67/105/78 62/97/74
f 59/94/83 56/86/84 66/103/79 67/105/78
f 55/85/85 24/36/51 65/102/39 64/101/76
f 45/65/86 55/85/85 64/101/76 68/106/71
f 52/80/73 19/31/53 42/62/34 62/98/74
f 50/75/82 45/65/86 68/106/71 63/99/64
f 107/172/81 50/73/82 63/100/64 109/175/63
f 23/35/37 86/137/77 26/38/38
f 8/12/87 81/131/88 86/137/77 23/35/37
f 10/17/20 51/77/62 81/131/88 8/12/87
f 31/48/89 51/78/62 10/18/20
f 28/42/16 57/89/59 30/47/17
f 35/52/42 60/95/80 57/90/59 28/43/16
f 4/6/1 47/68/54 60/95/80 35/52/42
f 17/29/4 47/69/54 4/7/1
f 12/21/30 52/80/73 18/30/36
f 19/31/53 52/80/73 12/21/30
f 3/4/32 46/66/75 20/32/33
f 34/51/48 59/94/83 46/67/75 3/5/32
f 27/39/49 56/86/84 59/94/83 34/51/48
f 32/49/90 56/88/84 27/41/49
f 9/14/44 50/74/82 33/50/45
f 1/1/52 45/65/86 50/75/82 9/15/44
f 21/33/50 55/85/85 45/65/86 1/1/52
f 21/33/50 24/36/51 55/85/85
f 10/17/20 8/12/87 76/122/91
f 71/112/92 23/35/37 11/19/6 2/3/93
f 69/107/14 77/123/13 76/121/91 70/109/94
f 2/2/93 70/109/94 72/113/95 71/111/92
f 2/2/93 75/119/10 69/107/14 70/109/94
f 70/110/94 76/122/91 8/12/87
f 2/2/93 78/125/96 79/127/11 75/119/10
f 69/107/14 75/119/10 74/117/47 73/115/97
f 76/122/91 77/124/13 10/17/20
f 23/35/37 71/112/92 72/114/95
f 72/114/95 70/110/94 8/12/87
f 8/12/87 23/35/37 72/114/95
f 79/128/11 78/126/96 22/34/5
f 78/126/96 2/3/93 11/19/6
f 11/19/6 22/34/5 78/126/96
f 22/34/5 13/22/9 79/128/11
f 13/22/9 74/118/47 75/120/10
f 74/118/47 16/28/23 73/116/97
f 73/116/97 14/24/12 69/108/14
f 14/24/12 73/116/97 16/28/23
f 83/133/72 97/159/98 93/151/99
f 84/135/61 87/139/100 95/155/101
f 95/155/101 51/77/62 84/135/61
f 54/84/65 83/133/72 92/149/102
f 51/77/62 94/153/103 81/131/88
f 89/143/104 80/130/105 82/132/57 86/137/77
f 87/138/100 88/140/106 94/152/103 95/154/101
f 80/129/105 89/142/104 90/144/107 88/140/106
f 80/129/105 88/140/106 87/138/100 93/150/99
f 88/141/106 81/131/88 94/153/103
f 80/129/105 93/150/99 97/158/98 96/156/108
f 87/138/100 91/146/109 92/148/102 93/150/99
f 94/153/103 51/77/62 95/155/101
f 86/137/77 90/145/107 89/143/104
f 90/145/107 81/131/88 88/141/106
f 81/131/88 90/145/107 86/137/77
f 97/159/98 85/136/56 96/157/108
f 96/157/108 82/132/57 80/130/105
f 82/132/57 96/157/108 85/136/56
f 85/136/56 97/159/98 83/133/72
f 83/133/72 93/151/99 92/149/102
f 92/149/102 91/147/109 54/84/65
f 91/147/109 87/139/100 84/135/61
f 84/135/61 54/84/65 91/147/109
f 56/87/84 107/172/81 109/175/63 66/104/79
f 58/93/68 106/171/66 108/174/60 49/72/69
f 56/88/84 32/49/90 103/167/46 107/173/81
f 66/104/79 109/175/63 106/171/66 58/93/68
f 49/72/69 108/174/60 105/169/58 57/91/59
f 51/78/62 31/48/89 102/166/18 105/170/58
f 27/40/49 41/61/41 104/168/21 101/164/43
f 29/46/28 6/10/27 98/160/19 100/163/22
f 27/41/49 101/165/43 103/167/46 32/49/90
f 41/61/41 29/46/28 100/163/22 104/168/21
f 6/10/27 28/44/16 99/161/15 98/160/19
f 10/18/20 99/162/15 102/166/18 31/48/89
